<?xml version="1.0" standalone="no"?>
<!DOCTYPE svg PUBLIC "-//W3C//DTD SVG 20010904//EN"
 "http://www.w3.org/TR/2001/REC-SVG-20010904/DTD/svg10.dtd">
<svg version="1.0" xmlns="http://www.w3.org/2000/svg"
 width="718.000000pt" height="479.000000pt" viewBox="0 0 718.000000 479.000000"
 preserveAspectRatio="xMidYMid meet">

<g transform="translate(0.000000,479.000000) scale(0.100000,-0.100000)"
fill="#000000" stroke="none">
<path d="M3325 4054 c-301 -25 -581 -98 -728 -191 -49 -31 -69 -76 -98 -223
-31 -152 -33 -474 -6 -645 61 -375 182 -628 433 -906 165 -183 387 -354 592
-458 l63 -32 87 46 c168 89 313 197 466 345 269 261 417 504 495 815 42 170
55 291 55 510 0 179 -3 227 -23 325 -29 147 -49 192 -98 223 -120 76 -318 136
-563 173 -102 15 -561 27 -675 18z m372 -348 c175 -183 283 -389 334 -635 23
-115 27 -309 5 -317 -16 -6 -138 -26 -307 -50 l-116 -17 -13 -209 c-12 -189
-12 -217 3 -286 10 -42 26 -89 37 -104 18 -24 18 -29 5 -55 -10 -19 -15 -60
-15 -135 0 -112 -5 -124 -42 -95 -11 8 -17 37 -21 97 -8 124 -18 147 -87 203
-152 123 -294 351 -346 557 -28 110 -26 349 4 481 58 258 164 451 346 628 42
41 79 85 83 99 5 22 9 18 39 -38 18 -34 59 -90 91 -124z"/>
<path d="M4323 1213 c-62 -2 -113 -7 -113 -11 0 -4 15 -12 33 -17 l32 -10 3
-194 c3 -201 -1 -221 -39 -221 -11 0 -19 -4 -19 -9 0 -5 38 -12 85 -16 152
-13 259 12 324 75 86 84 93 237 15 329 -56 65 -118 80 -321 74z m195 -47 c67
-35 105 -106 104 -196 0 -77 -10 -106 -52 -154 -37 -41 -95 -61 -149 -51 -70
13 -71 16 -71 226 0 140 3 189 13 193 20 9 126 -3 155 -18z"/>
<path d="M4760 1200 c0 -5 9 -10 19 -10 45 0 51 -22 51 -188 0 -207 -4 -231
-41 -239 -52 -10 -31 -21 55 -28 103 -9 172 0 228 28 107 54 117 179 19 223
l-39 17 34 32 c54 51 46 128 -16 160 -34 18 -310 22 -310 5z m222 -20 c46 -13
68 -43 68 -92 0 -58 -26 -78 -100 -78 l-60 0 0 84 c0 100 9 109 92 86z m36
-214 c60 -31 81 -84 58 -141 -19 -44 -72 -70 -125 -61 -52 8 -61 27 -61 128
l0 88 50 0 c28 0 63 -6 78 -14z"/>
<path d="M2077 1043 c-74 -18 -74 -19 -39 -37 l32 -17 0 -104 c0 -103 -1 -106
-25 -117 -47 -21 -28 -33 52 -31 80 1 100 11 61 28 -21 9 -23 17 -26 110 -3
92 -1 101 19 118 29 24 81 22 105 -4 14 -15 20 -40 22 -95 5 -94 -1 -118 -34
-133 -40 -18 -22 -24 63 -23 77 0 107 14 59 26 -24 6 -25 9 -28 112 l-3 106
27 14 c39 20 66 17 94 -11 23 -23 25 -30 22 -117 -3 -85 -5 -94 -25 -103 -39
-17 -26 -23 57 -27 85 -3 108 8 58 29 l-28 12 0 101 c0 112 -12 149 -55 168
-37 17 -55 15 -110 -12 l-48 -25 -29 25 c-37 30 -63 30 -121 0 l-46 -25 -3 22
c-3 21 -5 22 -51 10z"/>
<path d="M2757 1046 c-68 -25 -107 -80 -107 -153 1 -93 65 -163 150 -163 121
1 199 100 169 214 -25 95 -113 137 -212 102z m78 -30 c47 -20 69 -66 70 -144
0 -58 -3 -66 -28 -88 -35 -30 -66 -31 -102 -2 -36 28 -55 76 -55 138 0 44 5
56 29 81 34 33 39 34 86 15z"/>
<path d="M3110 1050 c-14 -4 -37 -11 -52 -14 -35 -8 -36 -19 -3 -34 24 -11 25
-14 25 -121 0 -109 0 -109 -26 -115 -14 -4 -24 -12 -21 -19 6 -18 167 -22 167
-4 0 8 -11 19 -25 25 -24 11 -25 15 -25 111 0 109 4 118 63 128 53 8 73 -18
82 -105 8 -85 0 -129 -26 -137 -10 -4 -19 -13 -19 -21 0 -11 17 -14 80 -14 65
0 80 3 80 15 0 9 -11 20 -25 25 -24 9 -25 12 -25 103 0 108 -11 149 -47 172
-33 22 -91 15 -133 -15 l-30 -21 0 25 c0 28 -2 29 -40 16z"/>
<path d="M3534 1041 c-53 -24 -74 -55 -74 -110 0 -37 5 -49 35 -76 l34 -33
-24 -16 c-30 -20 -31 -33 -5 -61 l21 -22 -25 -17 c-14 -9 -33 -27 -41 -40 -35
-53 33 -126 117 -126 120 0 222 98 188 181 -16 38 -31 45 -105 54 -88 9 -105
14 -105 30 0 14 10 18 68 30 17 4 46 20 62 37 25 25 30 37 30 80 0 35 4 48 13
45 20 -7 47 12 47 33 0 17 -4 18 -25 10 -17 -6 -39 -5 -72 5 -63 19 -89 18
-139 -4z m93 -33 c17 -16 23 -32 23 -66 0 -53 -21 -82 -60 -82 -37 0 -61 31
-67 83 -4 36 -1 49 16 66 27 27 59 27 88 -1z m42 -299 c36 -13 49 -47 32 -85
-24 -53 -136 -59 -178 -9 -29 33 -29 50 2 80 27 28 87 34 144 14z"/>
<path d="M3917 1046 c-47 -17 -71 -38 -91 -81 -34 -71 -6 -177 56 -215 62 -37
177 -17 217 39 65 91 38 217 -56 257 -40 17 -77 17 -126 0z m78 -30 c47 -20
69 -66 70 -144 0 -58 -3 -66 -28 -88 -35 -30 -66 -31 -102 -2 -36 28 -55 76
-55 138 0 44 5 56 29 81 34 33 39 34 86 15z"/>
</g>
</svg>
