<?xml version="1.0" encoding="UTF-8"?>
<!DOCTYPE svg PUBLIC "-//W3C//DTD SVG 1.1//EN" "http://www.w3.org/Graphics/SVG/1.1/DTD/svg11.dtd">
<!-- Creator: CorelDRAW -->
<svg xmlns="http://www.w3.org/2000/svg" xml:space="preserve" width="1.70666in" height="1.70666in" style="shape-rendering:geometricPrecision; text-rendering:geometricPrecision; image-rendering:optimizeQuality; fill-rule:evenodd; clip-rule:evenodd"
viewBox="0 0 1.70666 1.70666"
 xmlns:xlink="http://www.w3.org/1999/xlink">
 <defs>
  <style type="text/css">
   <![CDATA[
    .fil0 {fill:white}
   ]]>
  </style>
 </defs>
 <g id="Layer_x0020_1">
  <metadata id="CorelCorpID_0Corel-Layer"/>
  <g id="_215024200">
   <g>
    <g id="_215024224">
     <path id="_242701344" class="fil0" d="M0.947075 1.70659l-0.187504 0c-0.0106417,0 -0.0197087,-0.00772835 -0.0213898,-0.0182402l-0.0309409 -0.193358c-0.0161575,-0.00367323 -0.0322953,-0.00799213 -0.0482362,-0.0129213l-0.123465 0.151976c-0.00671654,0.00826378 -0.018437,0.0104213 -0.0276496,0.00509843l-0.162382 -0.0937559c-0.00921654,-0.00532283 -0.0132008,-0.0165512 -0.00940551,-0.0264961l0.0699449 -0.183067c-0.012126,-0.011252 -0.0239094,-0.0230354 -0.0352126,-0.0352205l-0.183075 0.0699409c-0.00994488,0.00379921 -0.0211732,-0.000188976 -0.0264961,-0.00940551l-0.093752 -0.162386c-0.00532283,-0.00921654 -0.00315748,-0.0209331 0.0051063,-0.0276457l0.151949 -0.123437c-0.00490945,-0.0159055 -0.00923228,-0.0320512 -0.0129094,-0.0482677l-0.193339 -0.0309331c-0.0105079,-0.00168504 -0.0182441,-0.010752 -0.0182441,-0.0213937l0 -0.187504c0,-0.0106417 0.00773228,-0.0197126 0.0182441,-0.0213898l0.193331 -0.0309409c0.00367323,-0.0161614 0.00799606,-0.0323071 0.0129213,-0.048252l-0.151953 -0.123453c-0.00826378,-0.0067126 -0.0104252,-0.0184291 -0.00510236,-0.0276457l0.093752 -0.162386c0.00532283,-0.00922047 0.0165512,-0.0132047 0.0264961,-0.00940551l0.183067 0.069937c0.0112717,-0.0121457 0.0230512,-0.0239252 0.0352205,-0.0352126l-0.069937 -0.183067c-0.00380315,-0.00994488 0.000188976,-0.0211772 0.00940551,-0.0264961l0.162382 -0.093752c0.00921654,-0.0053189 0.020937,-0.00315748 0.0276496,0.00510236l0.123441 0.151949c0.015878,-0.00489764 0.0320236,-0.0092126 0.0482598,-0.0129016l0.0309409 -0.193343c0.00167717,-0.0105079 0.010748,-0.0182441 0.0213898,-0.0182441l0.1875 3.93701e-006c0.0106417,0 0.0197087,0.00773228 0.0213937,0.0182402l0.0309331 0.19335c0.0161732,0.00367717 0.0323071,0.008 0.048248,0.0129213l0.123465 -0.151976c0.00670866,-0.00825984 0.0184291,-0.0104291 0.0276457,-0.00510236l0.162382 0.0937559c0.00921654,0.00532283 0.0132047,0.0165512 0.00940551,0.0264961l-0.0699409 0.183067c0.012126,0.011252 0.0239055,0.0230354 0.0352126,0.0352244l0.183071 -0.0699449c0.00994882,-0.00379921 0.0211811,0.000188976 0.0264961,0.00940551l0.0937559 0.162382c0.00532283,0.00922047 0.00315748,0.0209409 -0.00510236,0.0276496l-0.151953 0.123433c0.00490945,0.0158937 0.00922835,0.0320394 0.0129134,0.0482717l0.193339 0.030937c0.0105079,0.0016811 0.0182402,0.010748 0.0182402,0.0213898l0 0.187504c0,0.0106417 -0.00772835,0.0197087 -0.0182402,0.0213937l-0.19335 0.030937c-0.00367717,0.0161654 -0.00799606,0.0322992 -0.0129213,0.0482441l0.151972 0.123465c0.00826378,0.0067126 0.0104252,0.0184291 0.00510236,0.0276457l-0.0937598 0.162386c-0.0053189,0.00922441 -0.0165591,0.0132008 -0.0264921,0.00940551l-0.183071 -0.0699409c-0.0112559,0.012126 -0.0230394,0.0239055 -0.0352244,0.0352087l0.0699488 0.183075c0.00379921,0.00994488 -0.000192913,0.0211772 -0.00940551,0.0264961l-0.162386 0.093752c-0.00921654,0.00533071 -0.0209331,0.00315748 -0.0276457,-0.00509843l-0.123437 -0.151953c-0.0159055,0.00490945 -0.0320591,0.00923228 -0.0482677,0.0129094l-0.0309331 0.193343c-0.00168898,0.0105118 -0.0107598,0.0182402 -0.0214016,0.0182402zm-0.169028 -0.0433307l0.150555 0 0.0303543 -0.18974c0.00142913,-0.00892126 0.00824016,-0.0160157 0.0170945,-0.017811 0.0243307,-0.00492913 0.0486378,-0.0114331 0.0722362,-0.019315 0.00855118,-0.00286614 0.0179882,-0.000114173 0.0236772,0.00688583l0.121126 0.149106 0.130382 -0.0752835 -0.0686378 -0.179646c-0.00322047,-0.0084252 -0.00088189,-0.0179646 0.00587008,-0.0239449 0.0186457,-0.0165276 0.0364094,-0.0342835 0.0528031,-0.0527913 0.00597638,-0.00675197 0.0155197,-0.00908661 0.0239488,-0.00587402l0.179642 0.0686378 0.0752835 -0.130386 -0.149138 -0.121157c-0.00700394,-0.00568898 -0.00974803,-0.015126 -0.00688189,-0.0236811 0.00792126,-0.0237008 0.0144252,-0.0479921 0.0193346,-0.0722008 0.00179528,-0.00885039 0.00888976,-0.0156614 0.017811,-0.0170906l0.189748 -0.0303622 0 -0.150551 -0.18974 -0.0303622c-0.00891339,-0.0014252 -0.0160118,-0.00823622 -0.0178071,-0.0170827 -0.00494488,-0.024374 -0.0114449,-0.0486772 -0.0193228,-0.0722362 -0.00285827,-0.00855906 -0.000114173,-0.0179961 0.00688583,-0.023685l0.149106 -0.121122 -0.0752756 -0.130386 -0.179646 0.0686378c-0.00843307,0.00322047 -0.0179646,0.00088189 -0.0239488,-0.00587008 -0.0165315,-0.0186496 -0.0342913,-0.0364134 -0.0527874,-0.0527992 -0.00675197,-0.00597638 -0.00909449,-0.0155197 -0.00587795,-0.0239488l0.0686378 -0.179646 -0.130382 -0.0752835 -0.121161 0.149138c-0.00568898,0.00700787 -0.0151181,0.00974409 -0.0236811,0.00688583 -0.0236811,-0.00792126 -0.0479724,-0.0144252 -0.0722008,-0.0193386 -0.00885039,-0.00179528 -0.0156575,-0.00888976 -0.0170906,-0.017811l-0.0303583 -0.189744 -0.150551 0 -0.0303622 0.189744c-0.0014252,0.00892126 -0.00823622,0.0160157 -0.0170866,0.017811 -0.0243976,0.00494488 -0.0487008,0.0114449 -0.0722244,0.0193071 -0.00855512,0.0028622 -0.0179921,0.00011811 -0.023685,-0.00688583l-0.121138 -0.149106 -0.130382 0.0752795 0.0686299 0.179642c0.00322047,0.0084252 0.000877953,0.0179646 -0.00587008,0.0239488 -0.0185945,0.0164803 -0.0363583,0.0342402 -0.0527992,0.0527874 -0.00598031,0.00675197 -0.0155197,0.00909055 -0.0239449,0.00587008l-0.179638 -0.0686299 -0.0752795 0.130386 0.14911 0.121142c0.007,0.00568898 0.00974409,0.015126 0.00688583,0.0236811 -0.00792913,0.0237165 -0.0144331,0.0480118 -0.0193346,0.0722165 -0.00179134,0.00885039 -0.00888583,0.0156654 -0.017811,0.0170906l-0.189728 0.0303622 0 0.150555 0.189736 0.0303543c0.00891732,0.00143307 0.0160157,0.00824016 0.017811,0.0170945 0.00493307,0.0243346 0.0114331,0.0486378 0.019315,0.0722362 0.00285827,0.00855512 0.00011811,0.0179882 -0.00688583,0.0236772l-0.149106 0.12113 0.0752756 0.130382 0.17965 -0.0686378c0.0084252,-0.0032126 0.0179606,-0.00088189 0.0239488,0.00586614 0.0165276,0.0186535 0.0342874,0.0364173 0.0527874,0.0527992 0.00675197,0.00598425 0.00909449,0.0155236 0.00587402,0.0239567l-0.0686378 0.179642 0.130382 0.0752795 0.121161 -0.14913c0.00568898,-0.00701181 0.015126,-0.00975591 0.0236811,-0.00688583 0.0237087,0.00792126 0.048,0.0144291 0.0722047,0.0193346 0.00885039,0.00179528 0.0156614,0.00888976 0.0170866,0.017811l0.0303661 0.189748z"/>
    </g>
    <g id="_215024320">
     <path id="_242701248" class="fil0" d="M0.853327 1.34891c-0.27326,0 -0.495575,-0.222315 -0.495575,-0.495579 0,-0.273264 0.222315,-0.495575 0.495575,-0.495575 0.27326,0 0.495579,0.222315 0.495579,0.495575 0,0.27326 -0.222319,0.495579 -0.495579,0.495579zm0 -0.947827c-0.24937,0 -0.452244,0.202878 -0.452244,0.452248 0,0.24937 0.202874,0.452252 0.452244,0.452252 0.24937,0 0.452252,-0.202878 0.452252,-0.452252 0,-0.24937 -0.202882,-0.452248 -0.452252,-0.452248z"/>
    </g>
    <g>
     <g>
      <g id="_215024272">
       <path id="_242701224" class="fil0" d="M0.754272 1.00034c-0.00395276,0 -0.00794882,-0.00107874 -0.0115394,-0.00334252l-0.183622 -0.115835c-0.00625197,-0.00394882 -0.0100591,-0.0107992 -0.0101063,-0.0181929 -4.72441e-005,-0.00738976 0.0036811,-0.0142913 0.00987795,-0.018311l0.183622 -0.119059c0.0100394,-0.00650787 0.0234567,-0.00364961 0.0299646,0.0063937 0.00650787,0.0100394 0.00364567,0.0234528 -0.0063937,0.0299646l-0.155197 0.100626 0.154972 0.0977598c0.0101181,0.00638583 0.0131496,0.0197638 0.00676378,0.0298858 -0.00411811,0.00653543 -0.0111535,0.0101102 -0.0183425,0.0101102z"/>
      </g>
      <g id="_215025520">
       <path id="_242701896" class="fil0" d="M0.952382 0.984531c-0.00718898,0 -0.0142244,-0.00357874 -0.0183465,-0.0101102 -0.00638189,-0.0101181 -0.00335433,-0.0234961 0.00676772,-0.0298858l0.154972 -0.0977638 -0.155201 -0.100622c-0.0100433,-0.00651181 -0.0129016,-0.0199252 -0.0063937,-0.0299646 0.00650787,-0.0100433 0.0199213,-0.0129055 0.0299646,-0.0063937l0.183626 0.119055c0.00620079,0.00401969 0.0099252,0.0109213 0.00987795,0.018315 -4.72441e-005,0.00738976 -0.00385039,0.0142441 -0.0101024,0.018189l-0.183626 0.115839c-0.00359055,0.00226378 -0.00759055,0.00334252 -0.0115394,0.00334252z"/>
      </g>
     </g>
     <g id="_215025400">
      <path id="_242701704" class="fil0" d="M0.782461 1.1395c-0.00185827,0 -0.00374409,-0.000240157 -0.00562205,-0.000748031 -0.0115551,-0.00309449 -0.0184173,-0.0149764 -0.0153189,-0.0265315l0.141752 -0.529012c0.00309449,-0.0115512 0.0149724,-0.0184134 0.0265315,-0.0153189 0.011563,0.00309843 0.0184173,0.0149803 0.0153189,0.0265354l-0.141748 0.529008c-0.00259449,0.00968504 -0.0113465,0.0160669 -0.0209134,0.0160669z"/>
     </g>
    </g>
   </g>
  </g>
 </g>
</svg>
